<svg xmlns="http://www.w3.org/2000/svg" viewBox="0 0 1080 572"><style>text{font-family:Consolas,Menlo,monospace;fill:#17202a}.title{font-size:22px;font-weight:700}.subtitle{font-size:12px;fill:#52606d}.branch{font-size:12px;font-weight:700}.detail{font-size:12px}.status{font-size:11px;font-weight:700}</style><rect x="0" y="0" width="1080" height="100%" fill="#f8fafc"/><text x="28" y="34" class="title">Evidence Package Status</text><text x="28" y="56" class="subtitle">The measured OVH host pass now completes stack/10 through stack/12, and stack/13 packages the curated evidence.</text><rect x="24" y="52" width="1032" height="28" rx="6" fill="#ffffff"/><text x="36" y="72" class="branch">stack/00-truth-capability-matrix</text><text x="360" y="72" class="detail">Truth pass and capability matrix</text><text x="980" y="72" class="status" text-anchor="end" fill="#1f7a1f">Complete</text><rect x="24" y="86" width="1032" height="28" rx="6" fill="#f1f5f9"/><text x="36" y="106" class="branch">stack/01-lineage-and-explicit-execution</text><text x="360" y="106" class="detail">Repo metadata and explicit execution lineage</text><text x="980" y="106" class="status" text-anchor="end" fill="#1f7a1f">Complete</text><rect x="24" y="120" width="1032" height="28" rx="6" fill="#ffffff"/><text x="36" y="140" class="branch">stack/02-test-buckets-and-ci</text><text x="360" y="140" class="detail">Test buckets, CI, and truth-pass fixtures</text><text x="980" y="140" class="status" text-anchor="end" fill="#1f7a1f">Complete</text><rect x="24" y="154" width="1032" height="28" rx="6" fill="#f1f5f9"/><text x="36" y="174" class="branch">stack/03-campaign-manifest-and-db</text><text x="360" y="174" class="detail">Campaign manifests and experiment schema</text><text x="980" y="174" class="status" text-anchor="end" fill="#1f7a1f">Complete</text><rect x="24" y="188" width="1032" height="28" rx="6" fill="#ffffff"/><text x="36" y="208" class="branch">stack/04-campaign-runner-and-reporting</text><text x="360" y="208" class="detail">Campaign runner and reporting</text><text x="980" y="208" class="status" text-anchor="end" fill="#1f7a1f">Complete</text><rect x="24" y="222" width="1032" height="28" rx="6" fill="#f1f5f9"/><text x="36" y="242" class="branch">stack/05-repeat-roi-foundation</text><text x="360" y="242" class="detail">Repeat ROI dry-run foundation</text><text x="980" y="242" class="status" text-anchor="end" fill="#1f7a1f">Complete</text><rect x="24" y="256" width="1032" height="28" rx="6" fill="#ffffff"/><text x="36" y="276" class="branch">stack/06-ncu-diagnostics-foundation</text><text x="360" y="276" class="detail">NCU diagnostics foundation</text><text x="980" y="276" class="status" text-anchor="end" fill="#1f7a1f">Complete</text><rect x="24" y="290" width="1032" height="28" rx="6" fill="#f1f5f9"/><text x="36" y="310" class="branch">stack/07-cuda-graphs-foundation</text><text x="360" y="310" class="detail">CUDA Graph execution foundation</text><text x="980" y="310" class="status" text-anchor="end" fill="#1f7a1f">Complete</text><rect x="24" y="324" width="1032" height="28" rx="6" fill="#ffffff"/><text x="36" y="344" class="branch">stack/08-cudaq-adapter</text><text x="360" y="344" class="detail">Adapter-backed CUDA-Q manifests</text><text x="980" y="344" class="status" text-anchor="end" fill="#1f7a1f">Complete</text><rect x="24" y="358" width="1032" height="28" rx="6" fill="#f1f5f9"/><text x="36" y="378" class="branch">stack/09-tiny-mnk-sidecar-foundation</text><text x="360" y="378" class="detail">Tiny-MNK sidecar foundation</text><text x="980" y="378" class="status" text-anchor="end" fill="#1f7a1f">Complete</text><rect x="24" y="392" width="1032" height="28" rx="6" fill="#ffffff"/><text x="36" y="412" class="branch">stack/10-remote-repeat-roi-results</text><text x="360" y="412" class="detail">Measured repeat ROI results on the OVH CUDA host</text><text x="980" y="412" class="status" text-anchor="end" fill="#1f7a1f">Complete</text><rect x="24" y="426" width="1032" height="28" rx="6" fill="#f1f5f9"/><text x="36" y="446" class="branch">stack/11-remote-ncu-and-graphs-results</text><text x="360" y="446" class="detail">Measured diagnostic NCU and graph A/B results</text><text x="980" y="446" class="status" text-anchor="end" fill="#1f7a1f">Complete</text><rect x="24" y="460" width="1032" height="28" rx="6" fill="#ffffff"/><text x="36" y="480" class="branch">stack/12-remote-cudaq-and-sidecar-results</text><text x="360" y="480" class="detail">Measured CUDA-Q adapter comparison and sidecar results</text><text x="980" y="480" class="status" text-anchor="end" fill="#1f7a1f">Complete</text><rect x="24" y="494" width="1032" height="28" rx="6" fill="#f1f5f9"/><text x="36" y="514" class="branch">stack/13-portfolio-packaging</text><text x="360" y="514" class="detail">Evidence packaging and release manifest</text><text x="980" y="514" class="status" text-anchor="end" fill="#1f7a1f">Complete</text></svg>
